<?xml version="1.0" encoding="UTF-8"?>
<svg width="512pt" height="512pt" version="1.1" viewBox="0 0 512 512" xmlns="http://www.w3.org/2000/svg">
 <path d="m337.92 143.36h40.961c5.6406 0 10.238-4.6016 10.238-10.238v-81.922c0-5.6406-4.6016-10.238-10.238-10.238h-61.441c-62.102 0-112.64 50.539-112.64 112.64v52.02h-71.68c-5.6406 0-10.238 4.6016-10.238 10.238v81.102c0 5.6406 4.6016 10.238 10.238 10.238h64.559v153.6c0 5.6406 4.6016 10.238 10.238 10.238h85.5c5.6406 0 10.238-4.6016 10.238-10.238v-153.6h53.863c4.6602 0 8.7617-3.1211 9.9414-7.6797l21.359-81.922c0.82031-3.0781 0.16016-6.3398-1.8008-8.8594-1.9414-2.5-4.9219-4-8.0781-4h-71.68v-30.719c0-16.941 13.781-30.719 30.719-30.719zm-40.961 81.922h68.66l-16.02 61.441h-56.219c-5.6406 0-10.238 4.6016-10.238 10.238v153.6h-65.02v-153.6c0-5.6406-4.6016-10.238-10.238-10.238h-64.559v-60.621h71.68c5.6406 0 10.238-4.6016 10.238-10.238v-62.258c0-50.801 41.32-92.16 92.16-92.16h51.199v61.441h-30.719c-28.219 0-51.199 22.98-51.199 51.199v40.961c0 5.6406 4.6016 10.238 10.238 10.238z" fill="#004d62"/>
</svg>
